<?xml version="1.0" encoding="UTF-8" standalone="no"?>
<!DOCTYPE svg PUBLIC "-//W3C//DTD SVG 1.1//EN"
 "http://www.w3.org/Graphics/SVG/1.1/DTD/svg11.dtd">
<!-- Generated by graphviz version 2.26.3 (20100126.1600)
 -->
<!-- Title: data_relationships Pages: 1 -->
<svg width="7101pt" height="724pt"
 viewBox="0.00 0.00 7101.00 724.00" xmlns="http://www.w3.org/2000/svg" xmlns:xlink="http://www.w3.org/1999/xlink">
<g id="graph1" class="graph" transform="scale(1 1) rotate(0) translate(4 720)">
<title>data_relationships</title>
<polygon fill="white" stroke="white" points="-4,5 -4,-720 7098,-720 7098,5 -4,5"/>
<!-- drivers_rosserial_rosserial_vex_cortex_launch_hello_world_launch -->
<g id="node1" class="node"><title>drivers_rosserial_rosserial_vex_cortex_launch_hello_world_launch</title>
<ellipse fill="none" stroke="black" cx="263" cy="-698" rx="263.132" ry="18"/>
<text text-anchor="middle" x="263" y="-693.4" font-family="Times New Roman,serif" font-size="14.00">drivers_rosserial_rosserial_vex_cortex_launch_hello_world_launch</text>
</g>
<!-- rostopic_logresults -->
<g id="node3" class="node"><title>rostopic_logresults</title>
<polygon fill="none" stroke="black" points="590,-582 466,-582 466,-458 590,-458 590,-582"/>
<polyline fill="none" stroke="black" points="478,-582 466,-570 "/>
<polyline fill="none" stroke="black" points="466,-470 478,-458 "/>
<polyline fill="none" stroke="black" points="578,-458 590,-470 "/>
<polyline fill="none" stroke="black" points="590,-570 578,-582 "/>
<text text-anchor="middle" x="528" y="-515.4" font-family="Times New Roman,serif" font-size="14.00">rostopic_logresults</text>
</g>
<!-- drivers_rosserial_rosserial_vex_cortex_launch_hello_world_launch&#45;&gt;rostopic_logresults -->
<g id="edge2" class="edge"><title>drivers_rosserial_rosserial_vex_cortex_launch_hello_world_launch&#45;&gt;rostopic_logresults</title>
<path fill="none" stroke="black" d="M289.868,-679.953C328.855,-653.765 402.466,-604.321 457.571,-567.307"/>
<polygon fill="black" stroke="black" points="459.554,-570.191 465.904,-561.71 455.651,-564.38 459.554,-570.191"/>
</g>
<!-- drivers_rosserial_rosserial_server_launch_socket_launch -->
<g id="node4" class="node"><title>drivers_rosserial_rosserial_server_launch_socket_launch</title>
<ellipse fill="none" stroke="black" cx="1284" cy="-698" rx="224.224" ry="18"/>
<text text-anchor="middle" x="1284" y="-693.4" font-family="Times New Roman,serif" font-size="14.00">drivers_rosserial_rosserial_server_launch_socket_launch</text>
</g>
<!-- rosserial_server_rosserial_server -->
<g id="node6" class="node"><title>rosserial_server_rosserial_server</title>
<polygon fill="none" stroke="black" points="1724,-620 1524,-620 1524,-420 1724,-420 1724,-620"/>
<polyline fill="none" stroke="black" points="1536,-620 1524,-608 "/>
<polyline fill="none" stroke="black" points="1524,-432 1536,-420 "/>
<polyline fill="none" stroke="black" points="1712,-420 1724,-432 "/>
<polyline fill="none" stroke="black" points="1724,-608 1712,-620 "/>
<text text-anchor="middle" x="1624" y="-515.4" font-family="Times New Roman,serif" font-size="14.00">rosserial_server_rosserial_server</text>
</g>
<!-- drivers_rosserial_rosserial_server_launch_socket_launch&#45;&gt;rosserial_server_rosserial_server -->
<g id="edge4" class="edge"><title>drivers_rosserial_rosserial_server_launch_socket_launch&#45;&gt;rosserial_server_rosserial_server</title>
<path fill="none" stroke="black" d="M1318.16,-680.118C1363.77,-656.24 1446.7,-612.82 1514.72,-577.213"/>
<polygon fill="black" stroke="black" points="1516.55,-580.206 1523.78,-572.467 1513.3,-574.004 1516.55,-580.206"/>
</g>
<!-- rosserial_python_rosserial_message_info -->
<g id="node8" class="node"><title>rosserial_python_rosserial_message_info</title>
<polygon fill="none" stroke="black" points="1990,-644 1742,-644 1742,-396 1990,-396 1990,-644"/>
<polyline fill="none" stroke="black" points="1754,-644 1742,-632 "/>
<polyline fill="none" stroke="black" points="1742,-408 1754,-396 "/>
<polyline fill="none" stroke="black" points="1978,-396 1990,-408 "/>
<polyline fill="none" stroke="black" points="1990,-632 1978,-644 "/>
<text text-anchor="middle" x="1866" y="-515.4" font-family="Times New Roman,serif" font-size="14.00">rosserial_python_rosserial_message_info</text>
</g>
<!-- drivers_rosserial_rosserial_server_launch_socket_launch&#45;&gt;rosserial_python_rosserial_message_info -->
<g id="edge6" class="edge"><title>drivers_rosserial_rosserial_server_launch_socket_launch&#45;&gt;rosserial_python_rosserial_message_info</title>
<path fill="none" stroke="black" d="M1433.89,-684.617C1545.07,-673.973 1684.19,-658.907 1732.39,-643.214"/>
<polygon fill="black" stroke="black" points="1733.87,-646.395 1741.95,-639.537 1731.36,-639.863 1733.87,-646.395"/>
</g>
<!-- sd_sensor_launch_sd_sensor_launch -->
<g id="node9" class="node"><title>sd_sensor_launch_sd_sensor_launch</title>
<ellipse fill="none" stroke="black" cx="2381" cy="-327" rx="151.777" ry="18"/>
<text text-anchor="middle" x="2381" y="-322.4" font-family="Times New Roman,serif" font-size="14.00">sd_sensor_launch_sd_sensor_launch</text>
</g>
<!-- sd_sensor_mpu6050 -->
<g id="node11" class="node"><title>sd_sensor_mpu6050</title>
<polygon fill="none" stroke="black" points="1927,-196 1793,-196 1793,-62 1927,-62 1927,-196"/>
<polyline fill="none" stroke="black" points="1805,-196 1793,-184 "/>
<polyline fill="none" stroke="black" points="1793,-74 1805,-62 "/>
<polyline fill="none" stroke="black" points="1915,-62 1927,-74 "/>
<polyline fill="none" stroke="black" points="1927,-184 1915,-196 "/>
<text text-anchor="middle" x="1860" y="-124.4" font-family="Times New Roman,serif" font-size="14.00">sd_sensor_mpu6050</text>
</g>
<!-- sd_sensor_launch_sd_sensor_launch&#45;&gt;sd_sensor_mpu6050 -->
<g id="edge8" class="edge"><title>sd_sensor_launch_sd_sensor_launch&#45;&gt;sd_sensor_mpu6050</title>
<path fill="none" stroke="black" d="M2309.09,-311.042C2281.34,-305.204 2249.28,-298.848 2220,-294 2157.24,-283.606 1989.13,-292.982 1936,-258 1916.43,-245.113 1901.21,-225.303 1889.72,-205.045"/>
<polygon fill="black" stroke="black" points="1892.69,-203.179 1884.86,-196.043 1886.53,-206.505 1892.69,-203.179"/>
</g>
<!-- ydlidar_ydlidar -->
<g id="node13" class="node"><title>ydlidar_ydlidar</title>
<polygon fill="none" stroke="black" points="2045,-179.5 1945,-179.5 1945,-78.5 2045,-78.5 2045,-179.5"/>
<polyline fill="none" stroke="black" points="1957,-179.5 1945,-167.5 "/>
<polyline fill="none" stroke="black" points="1945,-90.5 1957,-78.5 "/>
<polyline fill="none" stroke="black" points="2033,-78.5 2045,-90.5 "/>
<polyline fill="none" stroke="black" points="2045,-167.5 2033,-179.5 "/>
<text text-anchor="middle" x="1995" y="-124.4" font-family="Times New Roman,serif" font-size="14.00">ydlidar_ydlidar</text>
</g>
<!-- sd_sensor_launch_sd_sensor_launch&#45;&gt;ydlidar_ydlidar -->
<g id="edge10" class="edge"><title>sd_sensor_launch_sd_sensor_launch&#45;&gt;ydlidar_ydlidar</title>
<path fill="none" stroke="black" d="M2304.66,-311.328C2208.81,-291.588 2056.48,-259.985 2054,-258 2032.53,-240.816 2018.56,-214.076 2009.64,-189.387"/>
<polygon fill="black" stroke="black" points="2012.88,-188.034 2006.35,-179.691 2006.25,-190.285 2012.88,-188.034"/>
</g>
<!-- xv_11_lidar_raspberry_xv11lidar -->
<g id="node15" class="node"><title>xv_11_lidar_raspberry_xv11lidar</title>
<polygon fill="none" stroke="black" points="2265,-230 2063,-230 2063,-28 2265,-28 2265,-230"/>
<polyline fill="none" stroke="black" points="2075,-230 2063,-218 "/>
<polyline fill="none" stroke="black" points="2063,-40 2075,-28 "/>
<polyline fill="none" stroke="black" points="2253,-28 2265,-40 "/>
<polyline fill="none" stroke="black" points="2265,-218 2253,-230 "/>
<text text-anchor="middle" x="2164" y="-124.4" font-family="Times New Roman,serif" font-size="14.00">xv_11_lidar_raspberry_xv11lidar</text>
</g>
<!-- sd_sensor_launch_sd_sensor_launch&#45;&gt;xv_11_lidar_raspberry_xv11lidar -->
<g id="edge12" class="edge"><title>sd_sensor_launch_sd_sensor_launch&#45;&gt;xv_11_lidar_raspberry_xv11lidar</title>
<path fill="none" stroke="black" d="M2348.39,-309.336C2326.26,-296.566 2296.96,-278.085 2274,-258 2266.61,-251.532 2259.27,-244.558 2252.11,-237.32"/>
<polygon fill="black" stroke="black" points="2254.48,-234.738 2245,-230.002 2249.45,-239.615 2254.48,-234.738"/>
</g>
<!-- laser_filters_r1_laser_scan_filter -->
<g id="node17" class="node"><title>laser_filters_r1_laser_scan_filter</title>
<polygon fill="none" stroke="black" points="2479,-227.5 2283,-227.5 2283,-30.5 2479,-30.5 2479,-227.5"/>
<polyline fill="none" stroke="black" points="2295,-227.5 2283,-215.5 "/>
<polyline fill="none" stroke="black" points="2283,-42.5 2295,-30.5 "/>
<polyline fill="none" stroke="black" points="2467,-30.5 2479,-42.5 "/>
<polyline fill="none" stroke="black" points="2479,-215.5 2467,-227.5 "/>
<text text-anchor="middle" x="2381" y="-124.4" font-family="Times New Roman,serif" font-size="14.00">laser_filters_r1_laser_scan_filter</text>
</g>
<!-- sd_sensor_launch_sd_sensor_launch&#45;&gt;laser_filters_r1_laser_scan_filter -->
<g id="edge14" class="edge"><title>sd_sensor_launch_sd_sensor_launch&#45;&gt;laser_filters_r1_laser_scan_filter</title>
<path fill="none" stroke="black" d="M2381,-308.728C2381,-291.93 2381,-265.54 2381,-238.103"/>
<polygon fill="black" stroke="black" points="2384.5,-237.964 2381,-227.964 2377.5,-237.964 2384.5,-237.964"/>
</g>
<!-- sd_sensor_r1_laser_pattern_detector -->
<g id="node19" class="node"><title>sd_sensor_r1_laser_pattern_detector</title>
<polygon fill="none" stroke="black" points="2721,-241.5 2497,-241.5 2497,-16.5 2721,-16.5 2721,-241.5"/>
<polyline fill="none" stroke="black" points="2509,-241.5 2497,-229.5 "/>
<polyline fill="none" stroke="black" points="2497,-28.5 2509,-16.5 "/>
<polyline fill="none" stroke="black" points="2709,-16.5 2721,-28.5 "/>
<polyline fill="none" stroke="black" points="2721,-229.5 2709,-241.5 "/>
<text text-anchor="middle" x="2609" y="-124.4" font-family="Times New Roman,serif" font-size="14.00">sd_sensor_r1_laser_pattern_detector</text>
</g>
<!-- sd_sensor_launch_sd_sensor_launch&#45;&gt;sd_sensor_r1_laser_pattern_detector -->
<g id="edge16" class="edge"><title>sd_sensor_launch_sd_sensor_launch&#45;&gt;sd_sensor_r1_laser_pattern_detector</title>
<path fill="none" stroke="black" d="M2412.83,-309.267C2434.89,-296.328 2464.4,-277.677 2488,-258 2491.71,-254.906 2495.42,-251.705 2499.12,-248.421"/>
<polygon fill="black" stroke="black" points="2501.62,-250.879 2506.69,-241.574 2496.93,-245.688 2501.62,-250.879"/>
</g>
<!-- sd_execute_node_launch_execute_launch_launch -->
<g id="node20" class="node"><title>sd_execute_node_launch_execute_launch_launch</title>
<ellipse fill="none" stroke="black" cx="4103" cy="-698" rx="197.892" ry="18"/>
<text text-anchor="middle" x="4103" y="-693.4" font-family="Times New Roman,serif" font-size="14.00">sd_execute_node_launch_execute_launch_launch</text>
</g>
<!-- sd_execute_node_cmd_executor -->
<g id="node22" class="node"><title>sd_execute_node_cmd_executor</title>
<polygon fill="none" stroke="black" points="4204,-621.5 4002,-621.5 4002,-418.5 4204,-418.5 4204,-621.5"/>
<polyline fill="none" stroke="black" points="4014,-621.5 4002,-609.5 "/>
<polyline fill="none" stroke="black" points="4002,-430.5 4014,-418.5 "/>
<polyline fill="none" stroke="black" points="4192,-418.5 4204,-430.5 "/>
<polyline fill="none" stroke="black" points="4204,-609.5 4192,-621.5 "/>
<text text-anchor="middle" x="4103" y="-515.4" font-family="Times New Roman,serif" font-size="14.00">sd_execute_node_cmd_executor</text>
</g>
<!-- sd_execute_node_launch_execute_launch_launch&#45;&gt;sd_execute_node_cmd_executor -->
<g id="edge18" class="edge"><title>sd_execute_node_launch_execute_launch_launch&#45;&gt;sd_execute_node_cmd_executor</title>
<path fill="none" stroke="black" d="M4103,-679.953C4103,-667.741 4103,-650.472 4103,-631.764"/>
<polygon fill="black" stroke="black" points="4106.5,-631.559 4103,-621.559 4099.5,-631.559 4106.5,-631.559"/>
</g>
<!-- sd_behavior_launch_sd_behavior_launch -->
<g id="node23" class="node"><title>sd_behavior_launch_sd_behavior_launch</title>
<ellipse fill="none" stroke="black" cx="3029" cy="-327" rx="167.034" ry="18"/>
<text text-anchor="middle" x="3029" y="-322.4" font-family="Times New Roman,serif" font-size="14.00">sd_behavior_launch_sd_behavior_launch</text>
</g>
<!-- sd_behavior_r1_behavior_base_node -->
<g id="node25" class="node"><title>sd_behavior_r1_behavior_base_node</title>
<polygon fill="none" stroke="black" points="2967,-243 2739,-243 2739,-15 2967,-15 2967,-243"/>
<polyline fill="none" stroke="black" points="2751,-243 2739,-231 "/>
<polyline fill="none" stroke="black" points="2739,-27 2751,-15 "/>
<polyline fill="none" stroke="black" points="2955,-15 2967,-27 "/>
<polyline fill="none" stroke="black" points="2967,-231 2955,-243 "/>
<text text-anchor="middle" x="2853" y="-124.4" font-family="Times New Roman,serif" font-size="14.00">sd_behavior_r1_behavior_base_node</text>
</g>
<!-- sd_behavior_launch_sd_behavior_launch&#45;&gt;sd_behavior_r1_behavior_base_node -->
<g id="edge20" class="edge"><title>sd_behavior_launch_sd_behavior_launch&#45;&gt;sd_behavior_r1_behavior_base_node</title>
<path fill="none" stroke="black" d="M3013.07,-309.08C3000.47,-294.906 2981.67,-273.748 2961.33,-250.866"/>
<polygon fill="black" stroke="black" points="2963.93,-248.532 2954.67,-243.383 2958.7,-253.183 2963.93,-248.532"/>
</g>
<!-- sd_behavior_behavior_tree -->
<g id="node27" class="node"><title>sd_behavior_behavior_tree</title>
<polygon fill="none" stroke="black" points="3153,-213.5 2985,-213.5 2985,-44.5 3153,-44.5 3153,-213.5"/>
<polyline fill="none" stroke="black" points="2997,-213.5 2985,-201.5 "/>
<polyline fill="none" stroke="black" points="2985,-56.5 2997,-44.5 "/>
<polyline fill="none" stroke="black" points="3141,-44.5 3153,-56.5 "/>
<polyline fill="none" stroke="black" points="3153,-201.5 3141,-213.5 "/>
<text text-anchor="middle" x="3069" y="-124.4" font-family="Times New Roman,serif" font-size="14.00">sd_behavior_behavior_tree</text>
</g>
<!-- sd_behavior_launch_sd_behavior_launch&#45;&gt;sd_behavior_behavior_tree -->
<g id="edge22" class="edge"><title>sd_behavior_launch_sd_behavior_launch&#45;&gt;sd_behavior_behavior_tree</title>
<path fill="none" stroke="black" d="M3032.69,-308.728C3036.67,-289.033 3043.31,-256.15 3049.84,-223.856"/>
<polygon fill="black" stroke="black" points="3053.31,-224.362 3051.86,-213.867 3046.44,-222.976 3053.31,-224.362"/>
</g>
<!-- ydlidar_ros_X4_launch_lidar_top_launch -->
<g id="node28" class="node"><title>ydlidar_ros_X4_launch_lidar_top_launch</title>
<ellipse fill="none" stroke="black" cx="4486" cy="-698" rx="167.034" ry="18"/>
<text text-anchor="middle" x="4486" y="-693.4" font-family="Times New Roman,serif" font-size="14.00">ydlidar_ros_X4_launch_lidar_top_launch</text>
</g>
<!-- ydlidar_ydlidar_top_node -->
<g id="node30" class="node"><title>ydlidar_ydlidar_top_node</title>
<polygon fill="none" stroke="black" points="4567,-601 4405,-601 4405,-439 4567,-439 4567,-601"/>
<polyline fill="none" stroke="black" points="4417,-601 4405,-589 "/>
<polyline fill="none" stroke="black" points="4405,-451 4417,-439 "/>
<polyline fill="none" stroke="black" points="4555,-439 4567,-451 "/>
<polyline fill="none" stroke="black" points="4567,-589 4555,-601 "/>
<text text-anchor="middle" x="4486" y="-515.4" font-family="Times New Roman,serif" font-size="14.00">ydlidar_ydlidar_top_node</text>
</g>
<!-- ydlidar_ros_X4_launch_lidar_top_launch&#45;&gt;ydlidar_ydlidar_top_node -->
<g id="edge24" class="edge"><title>ydlidar_ros_X4_launch_lidar_top_launch&#45;&gt;ydlidar_ydlidar_top_node</title>
<path fill="none" stroke="black" d="M4486,-679.953C4486,-663.338 4486,-637.361 4486,-611.137"/>
<polygon fill="black" stroke="black" points="4489.5,-611.093 4486,-601.093 4482.5,-611.093 4489.5,-611.093"/>
</g>
<!-- drivers_rosserial_rosserial_server_launch_serial_launch -->
<g id="node31" class="node"><title>drivers_rosserial_rosserial_server_launch_serial_launch</title>
<ellipse fill="none" stroke="black" cx="1745" cy="-698" rx="218.859" ry="18"/>
<text text-anchor="middle" x="1745" y="-693.4" font-family="Times New Roman,serif" font-size="14.00">drivers_rosserial_rosserial_server_launch_serial_launch</text>
</g>
<!-- drivers_rosserial_rosserial_server_launch_serial_launch&#45;&gt;rosserial_server_rosserial_server -->
<g id="edge26" class="edge"><title>drivers_rosserial_rosserial_server_launch_serial_launch&#45;&gt;rosserial_server_rosserial_server</title>
<path fill="none" stroke="black" d="M1732.73,-679.953C1723.97,-667.058 1711.37,-648.523 1697.83,-628.611"/>
<polygon fill="black" stroke="black" points="1700.71,-626.615 1692.19,-620.313 1694.92,-630.551 1700.71,-626.615"/>
</g>
<!-- drivers_rosserial_rosserial_server_launch_serial_launch&#45;&gt;rosserial_python_rosserial_message_info -->
<g id="edge28" class="edge"><title>drivers_rosserial_rosserial_server_launch_serial_launch&#45;&gt;rosserial_python_rosserial_message_info</title>
<path fill="none" stroke="black" d="M1757.27,-679.953C1762.34,-672.491 1768.7,-663.14 1775.78,-652.726"/>
<polygon fill="black" stroke="black" points="1778.87,-654.401 1781.6,-644.163 1773.08,-650.466 1778.87,-654.401"/>
</g>
<!-- sd_main_launch_r1_launch -->
<g id="node34" class="node"><title>sd_main_launch_r1_launch</title>
<ellipse fill="none" stroke="black" cx="3773" cy="-698" rx="114.039" ry="18"/>
<text text-anchor="middle" x="3773" y="-693.4" font-family="Times New Roman,serif" font-size="14.00">sd_main_launch_r1_launch</text>
</g>
<!-- sd_main_launch_rx_launch -->
<g id="node36" class="node"><title>sd_main_launch_rx_launch</title>
<ellipse fill="none" stroke="black" cx="3773" cy="-520" rx="114.039" ry="18"/>
<text text-anchor="middle" x="3773" y="-515.4" font-family="Times New Roman,serif" font-size="14.00">sd_main_launch_rx_launch</text>
</g>
<!-- sd_main_launch_r1_launch&#45;&gt;sd_main_launch_rx_launch -->
<g id="edge30" class="edge"><title>sd_main_launch_r1_launch&#45;&gt;sd_main_launch_rx_launch</title>
<path fill="none" stroke="black" d="M3773,-679.953C3773,-648.902 3773,-585.152 3773,-548.198"/>
<polygon fill="black" stroke="black" points="3776.5,-548.095 3773,-538.095 3769.5,-548.095 3776.5,-548.095"/>
</g>
<!-- sd_main_launch_rx_launch&#45;&gt;sd_sensor_launch_sd_sensor_launch -->
<g id="edge66" class="edge"><title>sd_main_launch_rx_launch&#45;&gt;sd_sensor_launch_sd_sensor_launch</title>
<path fill="none" stroke="black" d="M3687.24,-508.109C3445.35,-474.572 2757.94,-379.263 2489.91,-342.1"/>
<polygon fill="black" stroke="black" points="2490.16,-338.602 2479.78,-340.695 2489.2,-345.535 2490.16,-338.602"/>
</g>
<!-- sd_main_launch_rx_launch&#45;&gt;sd_behavior_launch_sd_behavior_launch -->
<g id="edge68" class="edge"><title>sd_main_launch_rx_launch&#45;&gt;sd_behavior_launch_sd_behavior_launch</title>
<path fill="none" stroke="black" d="M3713.69,-504.613C3579.08,-469.694 3250.73,-384.519 3103.08,-346.216"/>
<polygon fill="black" stroke="black" points="3103.75,-342.774 3093.19,-343.651 3101.99,-349.55 3103.75,-342.774"/>
</g>
<!-- sd_teleop_launch_sd_teleop_launch -->
<g id="node45" class="node"><title>sd_teleop_launch_sd_teleop_launch</title>
<ellipse fill="none" stroke="black" cx="3362" cy="-327" rx="147.752" ry="18"/>
<text text-anchor="middle" x="3362" y="-322.4" font-family="Times New Roman,serif" font-size="14.00">sd_teleop_launch_sd_teleop_launch</text>
</g>
<!-- sd_main_launch_rx_launch&#45;&gt;sd_teleop_launch_sd_teleop_launch -->
<g id="edge76" class="edge"><title>sd_main_launch_rx_launch&#45;&gt;sd_teleop_launch_sd_teleop_launch</title>
<path fill="none" stroke="black" d="M3736.53,-502.873C3661.71,-467.74 3490.99,-387.572 3408.42,-348.799"/>
<polygon fill="black" stroke="black" points="3409.82,-345.588 3399.28,-344.506 3406.84,-351.925 3409.82,-345.588"/>
</g>
<!-- rviz_rviz -->
<g id="node64" class="node"><title>rviz_rviz</title>
<polygon fill="none" stroke="black" points="2211,-359.5 2147,-359.5 2147,-294.5 2211,-294.5 2211,-359.5"/>
<polyline fill="none" stroke="black" points="2159,-359.5 2147,-347.5 "/>
<polyline fill="none" stroke="black" points="2147,-306.5 2159,-294.5 "/>
<polyline fill="none" stroke="black" points="2199,-294.5 2211,-306.5 "/>
<polyline fill="none" stroke="black" points="2211,-347.5 2199,-359.5 "/>
<text text-anchor="middle" x="2179" y="-322.4" font-family="Times New Roman,serif" font-size="14.00">rviz_rviz</text>
</g>
<!-- sd_main_launch_rx_launch&#45;&gt;rviz_rviz -->
<g id="edge74" class="edge"><title>sd_main_launch_rx_launch&#45;&gt;rviz_rviz</title>
<path fill="none" stroke="black" d="M3668.72,-512.703C3342.26,-489.381 2353.64,-414.962 2220,-360 2219.9,-359.961 2219.81,-359.922 2219.71,-359.882"/>
<polygon fill="black" stroke="black" points="2221.55,-356.89 2211.06,-355.454 2218.37,-363.123 2221.55,-356.89"/>
</g>
<!-- sd_hardware_interface_launch_sd_hardware_interface_launch -->
<g id="node65" class="node"><title>sd_hardware_interface_launch_sd_hardware_interface_launch</title>
<ellipse fill="none" stroke="black" cx="3773" cy="-327" rx="244.849" ry="18"/>
<text text-anchor="middle" x="3773" y="-322.4" font-family="Times New Roman,serif" font-size="14.00">sd_hardware_interface_launch_sd_hardware_interface_launch</text>
</g>
<!-- sd_main_launch_rx_launch&#45;&gt;sd_hardware_interface_launch_sd_hardware_interface_launch -->
<g id="edge64" class="edge"><title>sd_main_launch_rx_launch&#45;&gt;sd_hardware_interface_launch_sd_hardware_interface_launch</title>
<path fill="none" stroke="black" d="M3773,-501.843C3773,-468.148 3773,-395.718 3773,-355.457"/>
<polygon fill="black" stroke="black" points="3776.5,-355.249 3773,-345.249 3769.5,-355.249 3776.5,-355.249"/>
</g>
<!-- sd_description_launch_sd_description_launch -->
<g id="node71" class="node"><title>sd_description_launch_sd_description_launch</title>
<ellipse fill="none" stroke="black" cx="4222" cy="-327" rx="185.988" ry="18"/>
<text text-anchor="middle" x="4222" y="-322.4" font-family="Times New Roman,serif" font-size="14.00">sd_description_launch_sd_description_launch</text>
</g>
<!-- sd_main_launch_rx_launch&#45;&gt;sd_description_launch_sd_description_launch -->
<g id="edge60" class="edge"><title>sd_main_launch_rx_launch&#45;&gt;sd_description_launch_sd_description_launch</title>
<path fill="none" stroke="black" d="M3799.79,-502.32C3840.25,-476.22 3920,-427.119 3993,-396 4041.21,-375.451 4097.54,-358.393 4142.27,-346.378"/>
<polygon fill="black" stroke="black" points="4143.44,-349.688 4152.21,-343.74 4141.65,-342.922 4143.44,-349.688"/>
</g>
<!-- sd_control_launch___control_launch -->
<g id="node73" class="node"><title>sd_control_launch___control_launch</title>
<ellipse fill="none" stroke="black" cx="4578" cy="-327" rx="151.777" ry="18"/>
<text text-anchor="middle" x="4578" y="-322.4" font-family="Times New Roman,serif" font-size="14.00">sd_control_launch___control_launch</text>
</g>
<!-- sd_main_launch_rx_launch&#45;&gt;sd_control_launch___control_launch -->
<g id="edge62" class="edge"><title>sd_main_launch_rx_launch&#45;&gt;sd_control_launch___control_launch</title>
<path fill="none" stroke="black" d="M3796.49,-502.19C3835.11,-474.009 3915.49,-419.891 3993,-396 4173.73,-340.295 4229.82,-387.034 4417,-360 4443.79,-356.13 4472.84,-350.596 4498.79,-345.163"/>
<polygon fill="black" stroke="black" points="4499.52,-348.587 4508.58,-343.089 4498.07,-341.739 4499.52,-348.587"/>
</g>
<!-- sd_localization_launch_sd_localization_launch -->
<g id="node78" class="node"><title>sd_localization_launch_sd_localization_launch</title>
<ellipse fill="none" stroke="black" cx="4934" cy="-327" rx="185.988" ry="18"/>
<text text-anchor="middle" x="4934" y="-322.4" font-family="Times New Roman,serif" font-size="14.00">sd_localization_launch_sd_localization_launch</text>
</g>
<!-- sd_main_launch_rx_launch&#45;&gt;sd_localization_launch_sd_localization_launch -->
<g id="edge70" class="edge"><title>sd_main_launch_rx_launch&#45;&gt;sd_localization_launch_sd_localization_launch</title>
<path fill="none" stroke="black" d="M3795.78,-502.324C3834.01,-473.815 3914.64,-418.594 3993,-396 4152.47,-350.016 4574,-377.879 4739,-360 4772.72,-356.346 4809.45,-350.599 4841.85,-344.918"/>
<polygon fill="black" stroke="black" points="4842.52,-348.353 4851.76,-343.159 4841.3,-341.461 4842.52,-348.353"/>
</g>
<!-- sd_navigation_launch_sd_navigation_launch -->
<g id="node80" class="node"><title>sd_navigation_launch_sd_navigation_launch</title>
<ellipse fill="none" stroke="black" cx="5316" cy="-327" rx="177.938" ry="18"/>
<text text-anchor="middle" x="5316" y="-322.4" font-family="Times New Roman,serif" font-size="14.00">sd_navigation_launch_sd_navigation_launch</text>
</g>
<!-- sd_main_launch_rx_launch&#45;&gt;sd_navigation_launch_sd_navigation_launch -->
<g id="edge72" class="edge"><title>sd_main_launch_rx_launch&#45;&gt;sd_navigation_launch_sd_navigation_launch</title>
<path fill="none" stroke="black" d="M3795.73,-502.179C3833.91,-473.46 3914.46,-417.945 3993,-396 4236.25,-328.031 4877.77,-386.013 5129,-360 5161.7,-356.615 5197.29,-350.86 5228.57,-345.096"/>
<polygon fill="black" stroke="black" points="5229.37,-348.506 5238.56,-343.227 5228.09,-341.625 5229.37,-348.506"/>
</g>
<!-- drivers_rosserial_rosserial_vex_v5_launch_minimal_robot_launch -->
<g id="node37" class="node"><title>drivers_rosserial_rosserial_vex_v5_launch_minimal_robot_launch</title>
<ellipse fill="none" stroke="black" cx="4930" cy="-698" rx="258.937" ry="18"/>
<text text-anchor="middle" x="4930" y="-693.4" font-family="Times New Roman,serif" font-size="14.00">drivers_rosserial_rosserial_vex_v5_launch_minimal_robot_launch</text>
</g>
<!-- rosserial_arduino_connector -->
<g id="node39" class="node"><title>rosserial_arduino_connector</title>
<polygon fill="none" stroke="black" points="5293,-608 5117,-608 5117,-432 5293,-432 5293,-608"/>
<polyline fill="none" stroke="black" points="5129,-608 5117,-596 "/>
<polyline fill="none" stroke="black" points="5117,-444 5129,-432 "/>
<polyline fill="none" stroke="black" points="5281,-432 5293,-444 "/>
<polyline fill="none" stroke="black" points="5293,-596 5281,-608 "/>
<text text-anchor="middle" x="5205" y="-515.4" font-family="Times New Roman,serif" font-size="14.00">rosserial_arduino_connector</text>
</g>
<!-- drivers_rosserial_rosserial_vex_v5_launch_minimal_robot_launch&#45;&gt;rosserial_arduino_connector -->
<g id="edge32" class="edge"><title>drivers_rosserial_rosserial_vex_v5_launch_minimal_robot_launch&#45;&gt;rosserial_arduino_connector</title>
<path fill="none" stroke="black" d="M4957.88,-679.953C4993.01,-657.217 5055.22,-616.951 5108.43,-582.509"/>
<polygon fill="black" stroke="black" points="5110.39,-585.407 5116.88,-577.035 5106.59,-579.53 5110.39,-585.407"/>
</g>
<!-- drivers_rosserial_rosserial_vex_v5_launch_hello_world_launch -->
<g id="node40" class="node"><title>drivers_rosserial_rosserial_vex_v5_launch_hello_world_launch</title>
<ellipse fill="none" stroke="black" cx="793" cy="-698" rx="248.874" ry="18"/>
<text text-anchor="middle" x="793" y="-693.4" font-family="Times New Roman,serif" font-size="14.00">drivers_rosserial_rosserial_vex_v5_launch_hello_world_launch</text>
</g>
<!-- drivers_rosserial_rosserial_vex_v5_launch_hello_world_launch&#45;&gt;rostopic_logresults -->
<g id="edge34" class="edge"><title>drivers_rosserial_rosserial_vex_v5_launch_hello_world_launch&#45;&gt;rostopic_logresults</title>
<path fill="none" stroke="black" d="M766.132,-679.953C727.145,-653.765 653.534,-604.321 598.429,-567.307"/>
<polygon fill="black" stroke="black" points="600.349,-564.38 590.096,-561.71 596.446,-570.191 600.349,-564.38"/>
</g>
<!-- drivers_rosserial_rosserial_server_launch_udp_socket_launch -->
<g id="node42" class="node"><title>drivers_rosserial_rosserial_server_launch_udp_socket_launch</title>
<ellipse fill="none" stroke="black" cx="2227" cy="-698" rx="244.849" ry="18"/>
<text text-anchor="middle" x="2227" y="-693.4" font-family="Times New Roman,serif" font-size="14.00">drivers_rosserial_rosserial_server_launch_udp_socket_launch</text>
</g>
<!-- drivers_rosserial_rosserial_server_launch_udp_socket_launch&#45;&gt;rosserial_server_rosserial_server -->
<g id="edge36" class="edge"><title>drivers_rosserial_rosserial_server_launch_udp_socket_launch&#45;&gt;rosserial_server_rosserial_server</title>
<path fill="none" stroke="black" d="M2053.87,-685.244C1923.1,-674.575 1761.42,-658.77 1733,-644 1723.85,-639.242 1715.11,-633.371 1706.86,-626.793"/>
<polygon fill="black" stroke="black" points="1709.01,-624.027 1699.09,-620.283 1704.51,-629.391 1709.01,-624.027"/>
</g>
<!-- drivers_rosserial_rosserial_server_launch_udp_socket_launch&#45;&gt;rosserial_python_rosserial_message_info -->
<g id="edge38" class="edge"><title>drivers_rosserial_rosserial_server_launch_udp_socket_launch&#45;&gt;rosserial_python_rosserial_message_info</title>
<path fill="none" stroke="black" d="M2109.15,-682.174C2072.41,-674.119 2032.71,-662.045 1999,-644 1998.91,-643.951 1998.82,-643.902 1998.73,-643.853"/>
<polygon fill="black" stroke="black" points="2000.71,-640.955 1990.28,-639.075 1997.26,-647.047 2000.71,-640.955"/>
</g>
<!-- joy_joy_xbox -->
<g id="node47" class="node"><title>joy_joy_xbox</title>
<polygon fill="none" stroke="black" points="3265,-176.5 3171,-176.5 3171,-81.5 3265,-81.5 3265,-176.5"/>
<polyline fill="none" stroke="black" points="3183,-176.5 3171,-164.5 "/>
<polyline fill="none" stroke="black" points="3171,-93.5 3183,-81.5 "/>
<polyline fill="none" stroke="black" points="3253,-81.5 3265,-93.5 "/>
<polyline fill="none" stroke="black" points="3265,-164.5 3253,-176.5 "/>
<text text-anchor="middle" x="3218" y="-124.4" font-family="Times New Roman,serif" font-size="14.00">joy_joy_xbox</text>
</g>
<!-- sd_teleop_launch_sd_teleop_launch&#45;&gt;joy_joy_xbox -->
<g id="edge40" class="edge"><title>sd_teleop_launch_sd_teleop_launch&#45;&gt;joy_joy_xbox</title>
<path fill="none" stroke="black" d="M3332.34,-309.229C3313.62,-296.796 3290.02,-278.742 3274,-258 3257.6,-236.772 3244.97,-210.006 3235.88,-186.365"/>
<polygon fill="black" stroke="black" points="3239.09,-184.95 3232.33,-176.794 3232.53,-187.387 3239.09,-184.95"/>
</g>
<!-- joy_joy_ps -->
<g id="node49" class="node"><title>joy_joy_ps</title>
<polygon fill="none" stroke="black" points="3363,-169 3283,-169 3283,-89 3363,-89 3363,-169"/>
<polyline fill="none" stroke="black" points="3295,-169 3283,-157 "/>
<polyline fill="none" stroke="black" points="3283,-101 3295,-89 "/>
<polyline fill="none" stroke="black" points="3351,-89 3363,-101 "/>
<polyline fill="none" stroke="black" points="3363,-157 3351,-169 "/>
<text text-anchor="middle" x="3323" y="-124.4" font-family="Times New Roman,serif" font-size="14.00">joy_joy_ps</text>
</g>
<!-- sd_teleop_launch_sd_teleop_launch&#45;&gt;joy_joy_ps -->
<g id="edge42" class="edge"><title>sd_teleop_launch_sd_teleop_launch&#45;&gt;joy_joy_ps</title>
<path fill="none" stroke="black" d="M3358.4,-308.728C3352.64,-279.48 3341.15,-221.145 3332.82,-178.849"/>
<polygon fill="black" stroke="black" points="3336.25,-178.144 3330.88,-169.009 3329.38,-179.497 3336.25,-178.144"/>
</g>
<!-- sd_teleop_joy_convert -->
<g id="node51" class="node"><title>sd_teleop_joy_convert</title>
<polygon fill="none" stroke="black" points="3527,-202 3381,-202 3381,-56 3527,-56 3527,-202"/>
<polyline fill="none" stroke="black" points="3393,-202 3381,-190 "/>
<polyline fill="none" stroke="black" points="3381,-68 3393,-56 "/>
<polyline fill="none" stroke="black" points="3515,-56 3527,-68 "/>
<polyline fill="none" stroke="black" points="3527,-190 3515,-202 "/>
<text text-anchor="middle" x="3454" y="-124.4" font-family="Times New Roman,serif" font-size="14.00">sd_teleop_joy_convert</text>
</g>
<!-- sd_teleop_launch_sd_teleop_launch&#45;&gt;sd_teleop_joy_convert -->
<g id="edge44" class="edge"><title>sd_teleop_launch_sd_teleop_launch&#45;&gt;sd_teleop_joy_convert</title>
<path fill="none" stroke="black" d="M3370.49,-308.728C3380.82,-286.487 3398.97,-247.428 3415.72,-211.391"/>
<polygon fill="black" stroke="black" points="3418.9,-212.85 3419.94,-202.306 3412.55,-209.9 3418.9,-212.85"/>
</g>
<!-- sd_teleop_r1_teleop -->
<g id="node53" class="node"><title>sd_teleop_r1_teleop</title>
<polygon fill="none" stroke="black" points="3675,-194.5 3545,-194.5 3545,-63.5 3675,-63.5 3675,-194.5"/>
<polyline fill="none" stroke="black" points="3557,-194.5 3545,-182.5 "/>
<polyline fill="none" stroke="black" points="3545,-75.5 3557,-63.5 "/>
<polyline fill="none" stroke="black" points="3663,-63.5 3675,-75.5 "/>
<polyline fill="none" stroke="black" points="3675,-182.5 3663,-194.5 "/>
<text text-anchor="middle" x="3610" y="-124.4" font-family="Times New Roman,serif" font-size="14.00">sd_teleop_r1_teleop</text>
</g>
<!-- sd_teleop_launch_sd_teleop_launch&#45;&gt;sd_teleop_r1_teleop -->
<g id="edge46" class="edge"><title>sd_teleop_launch_sd_teleop_launch&#45;&gt;sd_teleop_r1_teleop</title>
<path fill="none" stroke="black" d="M3431.76,-311.018C3466.11,-300.426 3506.4,-283.636 3536,-258 3553.09,-243.195 3567.15,-223.421 3578.25,-203.81"/>
<polygon fill="black" stroke="black" points="3581.44,-205.286 3583.15,-194.83 3575.29,-201.937 3581.44,-205.286"/>
</g>
<!-- drivers_rosserial_rosserial_vex_cortex_launch_joystick_launch -->
<g id="node54" class="node"><title>drivers_rosserial_rosserial_vex_cortex_launch_joystick_launch</title>
<ellipse fill="none" stroke="black" cx="6020" cy="-698" rx="248.874" ry="18"/>
<text text-anchor="middle" x="6020" y="-693.4" font-family="Times New Roman,serif" font-size="14.00">drivers_rosserial_rosserial_vex_cortex_launch_joystick_launch</text>
</g>
<!-- joy_recievejoystickinput -->
<g id="node56" class="node"><title>joy_recievejoystickinput</title>
<polygon fill="none" stroke="black" points="6346,-596 6194,-596 6194,-444 6346,-444 6346,-596"/>
<polyline fill="none" stroke="black" points="6206,-596 6194,-584 "/>
<polyline fill="none" stroke="black" points="6194,-456 6206,-444 "/>
<polyline fill="none" stroke="black" points="6334,-444 6346,-456 "/>
<polyline fill="none" stroke="black" points="6346,-584 6334,-596 "/>
<text text-anchor="middle" x="6270" y="-515.4" font-family="Times New Roman,serif" font-size="14.00">joy_recievejoystickinput</text>
</g>
<!-- drivers_rosserial_rosserial_vex_cortex_launch_joystick_launch&#45;&gt;joy_recievejoystickinput -->
<g id="edge48" class="edge"><title>drivers_rosserial_rosserial_vex_cortex_launch_joystick_launch&#45;&gt;joy_recievejoystickinput</title>
<path fill="none" stroke="black" d="M6045.35,-679.953C6077.97,-656.726 6136.29,-615.203 6185.33,-580.284"/>
<polygon fill="black" stroke="black" points="6187.63,-582.947 6193.74,-574.295 6183.57,-577.244 6187.63,-582.947"/>
</g>
<!-- drivers_rosserial_rosserial_vex_cortex_launch_minimal_robot_launch -->
<g id="node57" class="node"><title>drivers_rosserial_rosserial_vex_cortex_launch_minimal_robot_launch</title>
<ellipse fill="none" stroke="black" cx="5480" cy="-698" rx="273.194" ry="18"/>
<text text-anchor="middle" x="5480" y="-693.4" font-family="Times New Roman,serif" font-size="14.00">drivers_rosserial_rosserial_vex_cortex_launch_minimal_robot_launch</text>
</g>
<!-- drivers_rosserial_rosserial_vex_cortex_launch_minimal_robot_launch&#45;&gt;rosserial_arduino_connector -->
<g id="edge50" class="edge"><title>drivers_rosserial_rosserial_vex_cortex_launch_minimal_robot_launch&#45;&gt;rosserial_arduino_connector</title>
<path fill="none" stroke="black" d="M5452.12,-679.953C5416.99,-657.217 5354.78,-616.951 5301.57,-582.509"/>
<polygon fill="black" stroke="black" points="5303.41,-579.53 5293.12,-577.035 5299.61,-585.407 5303.41,-579.53"/>
</g>
<!-- ydlidar_ros_X4_launch_display_launch -->
<g id="node59" class="node"><title>ydlidar_ros_X4_launch_display_launch</title>
<ellipse fill="none" stroke="black" cx="6933" cy="-698" rx="159.827" ry="18"/>
<text text-anchor="middle" x="6933" y="-693.4" font-family="Times New Roman,serif" font-size="14.00">ydlidar_ros_X4_launch_display_launch</text>
</g>
<!-- ydlidar_ydlidar_node -->
<g id="node61" class="node"><title>ydlidar_ydlidar_node</title>
<polygon fill="none" stroke="black" points="7001,-588 6865,-588 6865,-452 7001,-452 7001,-588"/>
<polyline fill="none" stroke="black" points="6877,-588 6865,-576 "/>
<polyline fill="none" stroke="black" points="6865,-464 6877,-452 "/>
<polyline fill="none" stroke="black" points="6989,-452 7001,-464 "/>
<polyline fill="none" stroke="black" points="7001,-576 6989,-588 "/>
<text text-anchor="middle" x="6933" y="-515.4" font-family="Times New Roman,serif" font-size="14.00">ydlidar_ydlidar_node</text>
</g>
<!-- ydlidar_ros_X4_launch_display_launch&#45;&gt;ydlidar_ydlidar_node -->
<g id="edge52" class="edge"><title>ydlidar_ros_X4_launch_display_launch&#45;&gt;ydlidar_ydlidar_node</title>
<path fill="none" stroke="black" d="M6933,-679.953C6933,-660.657 6933,-628.734 6933,-598.46"/>
<polygon fill="black" stroke="black" points="6936.5,-598.278 6933,-588.278 6929.5,-598.278 6936.5,-598.278"/>
</g>
<!-- ydlidar_ros_X4_launch_lidar_view_launch -->
<g id="node62" class="node"><title>ydlidar_ros_X4_launch_lidar_view_launch</title>
<ellipse fill="none" stroke="black" cx="2179" cy="-520" rx="171.229" ry="18"/>
<text text-anchor="middle" x="2179" y="-515.4" font-family="Times New Roman,serif" font-size="14.00">ydlidar_ros_X4_launch_lidar_view_launch</text>
</g>
<!-- ydlidar_ros_X4_launch_lidar_view_launch&#45;&gt;rviz_rviz -->
<g id="edge54" class="edge"><title>ydlidar_ros_X4_launch_lidar_view_launch&#45;&gt;rviz_rviz</title>
<path fill="none" stroke="black" d="M2179,-501.843C2179,-471.825 2179,-411.066 2179,-369.696"/>
<polygon fill="black" stroke="black" points="2182.5,-369.626 2179,-359.626 2175.5,-369.626 2182.5,-369.626"/>
</g>
<!-- joint_state_publisher_joint_state_publisher -->
<g id="node67" class="node"><title>joint_state_publisher_joint_state_publisher</title>
<polygon fill="none" stroke="black" points="3947,-256.5 3693,-256.5 3693,-1.5 3947,-1.5 3947,-256.5"/>
<polyline fill="none" stroke="black" points="3705,-256.5 3693,-244.5 "/>
<polyline fill="none" stroke="black" points="3693,-13.5 3705,-1.5 "/>
<polyline fill="none" stroke="black" points="3935,-1.5 3947,-13.5 "/>
<polyline fill="none" stroke="black" points="3947,-244.5 3935,-256.5 "/>
<text text-anchor="middle" x="3820" y="-124.4" font-family="Times New Roman,serif" font-size="14.00">joint_state_publisher_joint_state_publisher</text>
</g>
<!-- sd_hardware_interface_launch_sd_hardware_interface_launch&#45;&gt;joint_state_publisher_joint_state_publisher -->
<g id="edge56" class="edge"><title>sd_hardware_interface_launch_sd_hardware_interface_launch&#45;&gt;joint_state_publisher_joint_state_publisher</title>
<path fill="none" stroke="black" d="M3777.34,-308.728C3779.9,-297.924 3783.41,-283.151 3787.32,-266.684"/>
<polygon fill="black" stroke="black" points="3790.76,-267.347 3789.66,-256.809 3783.95,-265.731 3790.76,-267.347"/>
</g>
<!-- sd_hardware_interface_hardware_interface -->
<g id="node69" class="node"><title>sd_hardware_interface_hardware_interface</title>
<polygon fill="none" stroke="black" points="4221,-257.5 3965,-257.5 3965,-0.5 4221,-0.5 4221,-257.5"/>
<polyline fill="none" stroke="black" points="3977,-257.5 3965,-245.5 "/>
<polyline fill="none" stroke="black" points="3965,-12.5 3977,-0.5 "/>
<polyline fill="none" stroke="black" points="4209,-0.5 4221,-12.5 "/>
<polyline fill="none" stroke="black" points="4221,-245.5 4209,-257.5 "/>
<text text-anchor="middle" x="4093" y="-124.4" font-family="Times New Roman,serif" font-size="14.00">sd_hardware_interface_hardware_interface</text>
</g>
<!-- sd_hardware_interface_launch_sd_hardware_interface_launch&#45;&gt;sd_hardware_interface_hardware_interface -->
<g id="edge58" class="edge"><title>sd_hardware_interface_launch_sd_hardware_interface_launch&#45;&gt;sd_hardware_interface_hardware_interface</title>
<path fill="none" stroke="black" d="M3837.28,-309.623C3873.74,-298.126 3919.27,-280.921 3956,-258 3956.09,-257.943 3956.18,-257.886 3956.27,-257.83"/>
<polygon fill="black" stroke="black" points="3958.22,-260.738 3964.7,-252.356 3954.41,-254.867 3958.22,-260.738"/>
</g>
<!-- drivers_rosserial_rosserial_vex_v5_launch_joystick_launch -->
<g id="node83" class="node"><title>drivers_rosserial_rosserial_vex_v5_launch_joystick_launch</title>
<ellipse fill="none" stroke="black" cx="6521" cy="-698" rx="234.116" ry="18"/>
<text text-anchor="middle" x="6521" y="-693.4" font-family="Times New Roman,serif" font-size="14.00">drivers_rosserial_rosserial_vex_v5_launch_joystick_launch</text>
</g>
<!-- drivers_rosserial_rosserial_vex_v5_launch_joystick_launch&#45;&gt;joy_recievejoystickinput -->
<g id="edge78" class="edge"><title>drivers_rosserial_rosserial_vex_v5_launch_joystick_launch&#45;&gt;joy_recievejoystickinput</title>
<path fill="none" stroke="black" d="M6495.55,-679.953C6462.68,-656.642 6403.82,-614.904 6354.48,-579.908"/>
<polygon fill="black" stroke="black" points="6356.2,-576.837 6346.01,-573.907 6352.15,-582.547 6356.2,-576.837"/>
</g>
</g>
</svg>
